HIERARCHY
ROOT Hips
{
	OFFSET 190.886993 90.533302 318.949097
	CHANNELS 6 Xposition Yposition Zposition Zrotation Yrotation Xrotation 
	JOINT LeftUpLeg
	{
		OFFSET 0.103459 1.857839 10.548500
		CHANNELS 3 Zrotation Yrotation Xrotation
		JOINT LeftLeg
		{
			OFFSET 43.500004 -0.000053 -0.000011
			CHANNELS 3 Zrotation Yrotation Xrotation
			JOINT LeftFoot
			{
				OFFSET 42.372192 0.000015 -0.000008
				CHANNELS 3 Zrotation Yrotation Xrotation
				JOINT LeftToe
				{
					OFFSET 17.300007 0.000002 0.000013
					CHANNELS 3 Zrotation Yrotation Xrotation
					End Site
					{
						OFFSET 0.000000 0.000000 0.000000
					}
				}
			}
		}
	}
	JOINT RightUpLeg
	{
		OFFSET 0.103460 1.857826 -10.548500
		CHANNELS 3 Zrotation Yrotation Xrotation
		JOINT RightLeg
		{
			OFFSET 43.500046 -0.000019 0.000011
			CHANNELS 3 Zrotation Yrotation Xrotation
			JOINT RightFoot
			{
				OFFSET 42.372261 0.000004 0.000012
				CHANNELS 3 Zrotation Yrotation Xrotation
				JOINT RightToe
				{
					OFFSET 17.299995 -0.000004 0.000006
					CHANNELS 3 Zrotation Yrotation Xrotation
					End Site
					{
						OFFSET 0.000000 0.000000 0.000000
					}
				}
			}
		}
	}
	JOINT Spine
	{
		OFFSET 6.901963 -2.603745 -0.000005
		CHANNELS 3 Zrotation Yrotation Xrotation
		JOINT Spine1
		{
			OFFSET 12.588102 0.000012 0.000012
			CHANNELS 3 Zrotation Yrotation Xrotation
			JOINT Spine2
			{
				OFFSET 12.343202 0.000010 -0.000009
				CHANNELS 3 Zrotation Yrotation Xrotation
				JOINT Neck
				{
					OFFSET 25.832901 -0.000008 0.000006
					CHANNELS 3 Zrotation Yrotation Xrotation
					JOINT Head
					{
						OFFSET 11.766603 0.000007 -0.000001
						CHANNELS 3 Zrotation Yrotation Xrotation
						End Site
						{
							OFFSET 0.000000 0.000000 0.000000
						}
					}
				}
				JOINT LeftShoulder
				{
					OFFSET 19.745903 -1.480391 6.000108
					CHANNELS 3 Zrotation Yrotation Xrotation
					JOINT LeftArm
					{
						OFFSET 11.284125 -0.000031 -0.000021
						CHANNELS 3 Zrotation Yrotation Xrotation
						JOINT LeftForeArm
						{
							OFFSET 33.000046 0.000024 0.000034
							CHANNELS 3 Zrotation Yrotation Xrotation
							JOINT LeftHand
							{
								OFFSET 25.200014 0.000020 0.000007
								CHANNELS 3 Zrotation Yrotation Xrotation
								End Site
								{
									OFFSET 0.000000 0.000000 0.000000
								}
							}
						}
					}
				}
				JOINT RightShoulder
				{
					OFFSET 19.746098 -1.480371 -6.000075
					CHANNELS 3 Zrotation Yrotation Xrotation
					JOINT RightArm
					{
						OFFSET 11.284128 -0.000021 -0.000009
						CHANNELS 3 Zrotation Yrotation Xrotation
						JOINT RightForeArm
						{
							OFFSET 33.000095 0.000034 0.000006
							CHANNELS 3 Zrotation Yrotation Xrotation
							JOINT RightHand
							{
								OFFSET 25.199781 0.000147 0.000427
								CHANNELS 3 Zrotation Yrotation Xrotation
								End Site
								{
									OFFSET 0.000000 0.000000 0.000000
								}
							}
						}
					}
				}
			}
		}
	}
}
MOTION
Frames: 13
Frame Time: 0.033333
78.800346 86.571381 137.074997 92.624352 -1.455998 85.711614 147.491774 -3.110900 169.725147 -35.389300 -1.205026 -3.721213 73.736694 3.039373 1.184658 21.454553 0.003087 -0.000002 174.462607 8.528203 -175.632345 -62.696615 -6.951361 -4.244743 70.593591 4.446726 3.493422 21.454553 -0.003103 -0.000021 6.120681 -0.675915 1.766259 2.207419 -1.384490 3.519926 1.889889 -1.363083 3.528202 -2.200344 -0.681300 0.588012 -13.587903 -3.063955 1.451217 -152.434072 -80.334356 -29.516191 33.273137 58.117383 83.834923 -34.924106 -3.798378 0.592604 12.836077 6.385513 8.940307 168.662943 75.515719 -10.188018 -13.537056 -49.784887 -4.910972 -67.996801 13.032437 -2.308729 1.293699 15.632698 7.310994 
79.724442 87.455254 141.475494 92.913556 -0.721410 85.815105 151.195513 -2.046597 167.393443 -35.576816 -0.217047 -2.738866 76.619457 2.246383 1.096719 21.454553 0.003094 0.000002 169.269655 7.807113 -178.346580 -72.154603 -5.713218 0.991628 68.649863 2.074817 7.174028 21.454553 -0.003111 -0.000016 6.227830 -0.691712 1.558310 2.423848 -1.415148 3.102400 2.106176 -1.396259 3.110880 -0.559648 -0.047904 1.486162 -13.567011 -3.916710 2.800476 -151.456303 -79.964044 -30.518897 28.406904 59.346653 80.189406 -35.010395 -4.495134 0.642008 13.289748 5.108090 9.942840 167.818950 75.464971 -11.052006 -13.286837 -52.662773 -7.314465 -60.803628 14.519109 -2.128573 2.887065 14.684943 6.989205 
80.577339 88.409958 145.730698 93.337465 -0.175700 86.319494 155.324116 -0.196600 167.833061 -33.993636 -0.022890 -3.052050 78.548528 2.401082 1.018541 21.454550 0.003089 -0.000002 163.912929 6.968801 -178.354189 -78.242904 -5.348015 4.971325 71.751438 -1.382760 6.030639 21.454560 -0.003102 -0.000019 6.258096 -0.685589 1.243217 2.488455 -1.397176 2.471973 2.170593 -1.382067 2.480341 1.023398 1.149391 2.577359 -12.847606 -5.502171 4.654037 -150.714176 -79.601989 -31.282772 21.566286 60.500197 74.933179 -35.196241 -5.205452 0.694314 11.541320 1.968709 8.755363 168.899062 75.242573 -9.957016 -13.386163 -54.466118 -10.809000 -52.561731 15.252330 -1.882149 4.364362 13.315383 4.598459 
81.182602 89.324837 150.004395 93.258085 -0.084455 87.573489 159.281664 1.278593 170.546108 -31.749526 -0.469617 -3.976300 80.050924 2.922427 0.612760 21.454551 0.003093 -0.000001 158.966315 6.055694 -176.586167 -79.906827 -5.295654 6.671636 73.238766 -2.464265 6.748564 21.454562 -0.003113 -0.000009 6.155442 -0.544559 0.922877 2.289288 -1.106815 1.835169 1.971296 -1.095574 1.841825 3.139238 1.529210 3.370566 -12.913066 -6.099132 5.725772 -153.044377 -79.289112 -28.922737 13.368402 60.872312 68.125120 -36.066032 -7.158854 0.845257 11.964397 1.114955 6.708071 170.209967 74.824231 -8.631952 -11.496640 -55.434966 -15.245653 -45.342733 14.863839 -1.626605 4.638950 11.320081 1.891017 
81.674828 89.928230 154.236298 93.504183 -0.019514 89.175114 163.293144 2.912601 172.995332 -29.246047 -0.550502 -4.627622 81.344145 3.263084 0.249508 21.454551 0.003092 -0.000001 154.501311 6.029599 -174.548353 -78.525619 -5.270604 6.182806 75.336085 -2.129614 7.147228 21.454558 -0.003103 -0.000018 6.097284 -0.486420 0.604855 2.176647 -0.983869 1.200782 1.858567 -0.976448 1.206689 4.310485 2.107374 4.072119 -12.496415 -6.303656 6.579736 -153.472411 -79.164399 -28.490510 3.944635 60.755953 59.991061 -37.192026 -9.430544 1.022490 11.187864 -0.361219 3.716727 171.318944 74.778106 -7.499047 -8.002788 -56.731391 -20.093213 -39.791579 14.324558 -1.436128 5.287281 8.940630 2.237441 
82.076622 90.047127 158.552795 93.864353 0.092167 91.028998 166.932255 4.169299 173.690590 -27.846516 -0.067025 -4.190261 83.221333 2.913295 0.179059 21.454557 0.003082 -0.000000 150.998066 6.604002 -172.725826 -74.215476 -5.121056 4.316864 78.078112 -0.559350 8.751216 21.454560 -0.003113 -0.000015 6.099498 -0.451920 0.282560 2.184026 -0.908970 0.556797 1.865904 -0.905471 0.562280 4.399233 3.113785 4.573284 -11.419031 -7.326845 7.515623 -153.292149 -79.684183 -28.661082 -4.605263 60.682761 50.023390 -39.050538 -11.527219 1.206111 10.341875 -1.897844 2.068647 173.322033 75.018187 -5.441026 -3.663860 -58.193096 -23.702141 -35.776913 13.699188 -1.295948 6.890344 5.997680 3.032506 
82.346428 89.770767 162.921799 94.114980 0.040264 93.191504 169.748793 4.620904 174.180274 -28.016295 -0.051074 -3.250010 85.861475 2.279405 0.339100 21.454553 0.003085 0.000000 148.268039 7.186907 -171.438855 -67.153928 -4.662048 2.554082 79.423926 0.859367 9.998866 21.454558 -0.003111 -0.000018 6.105135 -0.411161 -0.059385 2.197919 -0.821183 -0.126340 1.879782 -0.821793 -0.121372 4.469571 4.302026 4.897063 -11.627166 -9.066105 8.616602 -154.973044 -80.189973 -26.941782 -11.952817 59.746977 40.124114 -42.321020 -13.825610 1.443160 10.286868 -3.583256 1.278944 175.728992 74.722932 -2.985006 1.334277 -58.508766 -26.723124 -33.341848 12.828049 -1.184598 8.588614 3.424989 4.170996 
82.518173 89.272583 167.338501 94.506233 -0.075779 95.827616 172.348335 4.908709 174.841669 -28.639594 0.007346 -2.062821 88.703564 1.466428 0.409177 21.454548 0.003080 -0.000002 146.851881 8.343790 -170.732886 -57.151410 -4.021180 -0.047183 79.608812 2.638605 9.990397 21.454555 -0.003109 -0.000019 6.154580 -0.440415 -0.483429 2.300083 -0.871448 -0.975298 1.982002 -0.877187 -0.970018 3.985818 4.976603 5.311941 -12.079898 -9.946162 9.499902 -156.623027 -80.642138 -25.257375 -18.336068 58.282680 31.121873 -46.255489 -16.191436 1.712476 10.164835 -5.659524 0.741692 178.563971 74.446412 -0.087998 5.856404 -58.565607 -29.391557 -31.439139 11.882369 -1.083440 9.301672 2.041860 4.484414 
82.584396 88.926010 171.743500 94.285741 -0.315058 98.697606 175.136637 4.255995 175.911590 -28.428284 -0.114252 -0.856203 91.015891 0.654416 0.465761 21.454551 0.003086 -0.000000 147.201587 8.722584 -169.729682 -43.253966 -4.167381 -1.795112 77.690315 4.084095 10.182508 21.454558 -0.003110 -0.000016 6.180439 -0.388795 -0.893955 2.354082 -0.759882 -1.795473 2.036109 -0.770566 -1.790857 3.263822 5.839267 5.573652 -12.203159 -10.688184 10.202929 -157.301838 -81.378391 -24.555389 -23.291869 56.970106 23.747017 -50.502678 -18.351135 1.990339 8.210451 -8.890321 0.314900 -178.284057 74.121124 3.136961 10.247138 -58.518745 -31.660464 -30.189067 10.896558 -0.994731 10.154534 0.736423 3.465829 
82.702332 88.645370 176.121002 93.927020 -0.559123 101.052089 178.198829 3.359600 177.533801 -27.421277 -0.489011 -0.298158 92.694642 0.270860 0.403137 21.454557 0.003096 -0.000000 149.876330 8.379805 -172.085400 -25.824634 -3.815757 -2.179270 76.434782 4.196000 9.375161 21.454558 -0.003126 -0.000022 6.174768 -0.343042 -1.153630 2.343449 -0.663299 -2.313820 2.025601 -0.677130 -2.309773 3.013488 6.288717 5.790314 -12.664684 -10.900960 10.641169 -158.281697 -82.029465 -23.551501 -26.298699 55.884355 16.458623 -55.693079 -19.164437 2.224234 6.784690 -11.257487 1.658172 -175.461057 74.225489 6.034061 14.783844 -58.806262 -34.533074 -29.186044 10.241473 -0.933144 10.645502 -0.063652 2.514439 
82.934540 88.155197 180.590500 93.910593 -0.626578 102.937002 -178.746979 2.522399 178.164720 -26.967568 -0.782232 0.398383 94.126482 -0.189751 0.440333 21.454553 0.003087 0.000001 152.434919 8.185592 -179.003576 -12.532149 -3.340400 2.268730 77.212789 0.560423 8.071382 21.454560 -0.003103 -0.000015 6.175703 -0.359556 -1.321496 2.346637 -0.693002 -2.649858 2.028867 -0.708842 -2.645627 3.163898 6.175189 6.107567 -13.018410 -10.876940 10.970490 -158.114645 -82.445704 -23.713664 -27.928322 55.221806 9.727953 -61.509972 -18.642530 2.405253 5.225132 -12.840151 3.484561 -173.722037 74.639392 7.822026 19.217866 -58.911652 -37.681146 -28.805380 9.573644 -0.882555 11.367515 -1.309038 1.347857 
82.997299 87.194267 185.086899 94.187878 -0.552533 104.767623 -176.820224 1.342610 177.497287 -29.141586 -1.035973 1.721142 95.800554 -1.019620 0.888678 21.454553 0.003086 -0.000000 152.423608 9.079207 178.922734 -11.301490 -2.748646 6.000464 80.090846 0.227011 18.498697 21.454557 -0.003103 -0.000018 6.201061 -0.443053 -1.445433 2.400188 -0.856842 -2.899581 2.082485 -0.874176 -2.894367 3.519732 6.319466 6.306711 -13.218234 -11.509311 11.417064 -157.140578 -82.941835 -24.690572 -28.750793 55.092193 4.258900 -67.400771 -17.930879 2.589749 4.078159 -12.641057 6.128582 -172.640039 74.742425 8.931981 22.811177 -58.497176 -41.352813 -29.355228 9.714868 -0.901885 11.992811 -2.531192 0.737206 
82.861153 86.590607 189.163803 93.246603 0.235309 106.219079 -175.538143 -1.486297 176.318806 -32.471454 -1.293817 3.079741 96.066857 -1.908156 1.017601 21.454553 0.003091 0.000000 153.158017 8.736607 -175.041178 -14.495849 -2.656600 3.267591 74.709798 3.038709 18.278247 21.454560 -0.003105 -0.000018 6.349007 -0.261623 -1.397512 2.691197 -0.491423 -2.800640 2.373506 -0.508187 -2.797631 4.001178 5.875851 6.465023 -13.642332 -11.790813 11.623803 -157.298068 -83.119263 -24.528044 -29.099242 55.290583 -0.146967 -71.998841 -16.773906 2.699256 2.433793 -12.416535 8.569902 -171.461053 74.968109 10.141979 25.222680 -58.429946 -44.442805 -29.439399 10.084472 -0.927601 12.103043 -3.926820 0.315318 
